<svg xmlns="http://www.w3.org/2000/svg" xmlns:xlink="http://www.w3.org/1999/xlink" x="0" y="0" version="1.1" viewBox="0 0 32 32" xml:space="preserve"><g id="Flat_copy_5"><path fill="#E02F2F" d="M16.005 0c-8.837 0-16 7.163-16 16 0 8.836 7.163 16 16 16s16-7.164 16-16c0-8.837-7.163-16-16-16z"/><path fill="#FFF" d="M24.482 14.344c.111.59.171 1.209.171 1.854 0 5.044-3.377 8.631-8.476 8.631-4.878 0-8.83-3.952-8.83-8.83s3.952-8.83 8.83-8.83c2.384 0 4.376.877 5.905 2.301l-2.489 2.489v-.006c-.927-.883-2.102-1.336-3.416-1.336-2.914 0-5.281 2.461-5.281 5.375 0 2.913 2.368 5.381 5.281 5.381 2.644 0 4.442-1.512 4.813-3.587h-4.813v-3.444l8.305.002z"/></g><metadata><rdf:RDF xmlns:dc="http://purl.org/dc/elements/1.1/" xmlns:rdf="http://www.w3.org/1999/02/22-rdf-syntax-ns#" xmlns:rdfs="http://www.w3.org/2000/01/rdf-schema#"><rdf:Description about="https://iconscout.com/legal#licenses" dc:date="2017-09-15" dc:description="google,search,online,social,media" dc:format="image/svg+xml" dc:language="en" dc:publisher="Iconscout" dc:title="google,search,online,social,media"><dc:creator><rdf:Bag><rdf:li>Epicflaticon by Alfredo</rdf:li></rdf:Bag></dc:creator></rdf:Description></rdf:RDF></metadata></svg>